HIERARCHY
ROOT Hips
{
	OFFSET 0.000000 0.000000 0.000000
	CHANNELS 6 Xposition Yposition Zposition Zrotation Yrotation Xrotation 
	JOINT LHipJoint
	{
		OFFSET 0.000000 0.000000 0.000000
		CHANNELS 3 Zrotation Yrotation Xrotation
		JOINT LeftUpLeg
		{
			OFFSET 1.363060 -1.794630 0.839290
			CHANNELS 3 Zrotation Yrotation Xrotation
			JOINT LeftLeg
			{
				OFFSET 2.448110 -6.726130 0.000000
				CHANNELS 3 Zrotation Yrotation Xrotation
				JOINT LeftFoot
				{
					OFFSET 2.562200 -7.039590 0.000000
					CHANNELS 3 Zrotation Yrotation Xrotation
					JOINT LeftToeBase
					{
						OFFSET 0.157640 -0.433110 2.322550
						CHANNELS 3 Zrotation Yrotation Xrotation
						End Site
						{
							OFFSET 0.000000 0.000000 0.000000
						}
					}
				}
			}
		}
	}
	JOINT RHipJoint
	{
		OFFSET 0.000000 0.000000 0.000000
		CHANNELS 3 Zrotation Yrotation Xrotation
		JOINT RightUpLeg
		{
			OFFSET -1.305520 -1.794630 0.839290
			CHANNELS 3 Zrotation Yrotation Xrotation
			JOINT RightLeg
			{
				OFFSET -2.542530 -6.985550 0.000000
				CHANNELS 3 Zrotation Yrotation Xrotation
				JOINT RightFoot
				{
					OFFSET -2.568260 -7.056230 0.000000
					CHANNELS 3 Zrotation Yrotation Xrotation
					JOINT RightToeBase
					{
						OFFSET -0.164730 -0.452590 2.363150
						CHANNELS 3 Zrotation Yrotation Xrotation
						End Site
						{
							OFFSET 0.000000 0.000000 0.000000
						}
					}
				}
			}
		}
	}
	JOINT LowerBack
	{
		OFFSET 0.000000 0.000000 0.000000
		CHANNELS 3 Zrotation Yrotation Xrotation
		JOINT Spine
		{
			OFFSET 0.028270 2.035590 -0.193380
			CHANNELS 3 Zrotation Yrotation Xrotation
			JOINT Spine1
			{
				OFFSET 0.056720 2.048850 -0.042750
				CHANNELS 3 Zrotation Yrotation Xrotation
				JOINT Neck
				{
					OFFSET 0.000000 0.000000 0.000000
					CHANNELS 3 Zrotation Yrotation Xrotation
					JOINT Neck1
					{
						OFFSET -0.054170 1.746240 0.172020
						CHANNELS 3 Zrotation Yrotation Xrotation
						JOINT Head
						{
							OFFSET 0.104070 1.761360 -0.123970
							CHANNELS 3 Zrotation Yrotation Xrotation
							End Site
							{
								OFFSET 0.000000 0.000000 0.000000
							}
						}
					}
				}
				JOINT LeftShoulder
				{
					OFFSET 0.000000 0.000000 0.000000
					CHANNELS 3 Zrotation Yrotation Xrotation
					JOINT LeftArm
					{
						OFFSET 3.362410 1.200890 -0.311210
						CHANNELS 3 Zrotation Yrotation Xrotation
						JOINT LeftForeArm
						{
							OFFSET 4.983000 -0.000000 -0.000000
							CHANNELS 3 Zrotation Yrotation Xrotation
							JOINT LeftHand
							{
								OFFSET 3.483560 -0.000000 -0.000000
								CHANNELS 3 Zrotation Yrotation Xrotation
								JOINT LeftFingerBase
								{
									OFFSET 0.000000 0.000000 0.000000
									CHANNELS 3 Zrotation Yrotation Xrotation
									JOINT LeftHandIndex1
									{
										OFFSET 0.715260 -0.000000 -0.000000
										CHANNELS 3 Zrotation Yrotation Xrotation
										End Site
										{
											OFFSET 0.000000 0.000000 0.000000
										}
									}
								}
								JOINT LThumb
								{
									OFFSET 0.000000 0.000000 0.000000
									CHANNELS 3 Zrotation Yrotation Xrotation
									End Site
									{
										OFFSET 0.000000 0.000000 0.000000
									}
								}
							}
						}
					}
				}
				JOINT RightShoulder
				{
					OFFSET 0.000000 0.000000 0.000000
					CHANNELS 3 Zrotation Yrotation Xrotation
					JOINT RightArm
					{
						OFFSET -3.136600 1.374050 -0.404650
						CHANNELS 3 Zrotation Yrotation Xrotation
						JOINT RightForeArm
						{
							OFFSET -5.241900 -0.000000 -0.000000
							CHANNELS 3 Zrotation Yrotation Xrotation
							JOINT RightHand
							{
								OFFSET -3.444170 -0.000000 -0.000000
								CHANNELS 3 Zrotation Yrotation Xrotation
								JOINT RightFingerBase
								{
									OFFSET 0.000000 0.000000 0.000000
									CHANNELS 3 Zrotation Yrotation Xrotation
									JOINT RightHandIndex1
									{
										OFFSET -0.622530 -0.000000 -0.000000
										CHANNELS 3 Zrotation Yrotation Xrotation
										End Site
										{
											OFFSET 0.000000 0.000000 0.000000
										}
									}
								}
								JOINT RThumb
								{
									OFFSET 0.000000 0.000000 0.000000
									CHANNELS 3 Zrotation Yrotation Xrotation
									End Site
									{
										OFFSET 0.000000 0.000000 0.000000
									}
								}
							}
						}
					}
				}
			}
		}
	}
}
MOTION
Frames: 6
Frame Time: 0.008333
0.225992 18.391385 8.997962 -9.702129 1.996990 17.674591 7.403509 4.375777 -2.762204 -23.446992 -53.974779 23.853732 -3.826738 -2.472736 -3.568968 -13.827646 48.468195 -43.361165 0.988300 6.327400 17.737300 0.022974 -4.348793 -0.816584 22.149688 29.978313 -0.229940 3.690427 -0.236802 1.047116 9.316497 -29.695701 -8.288803 -0.118400 -2.218100 6.108700 -6.377388 2.012066 7.377234 27.232981 9.142893 -32.335732 -10.228014 -2.047366 -9.374993 -27.607282 -13.692104 -3.187552 18.315520 -23.015406 30.863393 4.137000 -10.052100 10.589100 -9.169208 -6.686254 1.763102 -92.048812 12.803756 13.475793 11.747784 -12.610885 -1.986316 0.185766 1.598831 27.251585 15.303986 -10.210226 -3.312000 -7.125000 0.000000 0.000000 -7.887700 17.858500 5.137800 9.876543 7.854799 2.696788 77.241315 -15.382883 3.676062 -12.502327 17.310189 -2.541582 0.342316 1.887856 39.411497 19.388963 -22.806446 -8.712500 7.125000 0.000000 0.000000 46.896200 -48.587600 -5.233400 
0.223685 18.390966 8.996075 -9.726149 2.040509 17.657784 7.408988 4.376213 -2.758769 -23.272622 -53.857514 23.670103 -3.824118 -2.476206 -3.575390 -13.805230 48.370247 -43.195182 0.984700 6.316100 17.704400 0.027012 -4.353313 -0.814464 22.205522 30.034425 -0.169548 3.693311 -0.222902 1.016493 9.342777 -29.773219 -8.359032 -0.112000 -2.157500 5.941300 -6.391265 2.006741 7.379780 27.281413 9.135755 -32.291188 -10.222239 -2.055942 -9.402190 -27.584697 -13.751258 -3.300181 18.328284 -23.074324 30.877990 4.123100 -10.074700 10.617500 -9.176152 -6.678049 1.758435 -92.040893 12.781353 13.583604 11.733501 -12.591166 -1.982301 0.174940 1.604457 27.136526 15.368687 -10.206315 -3.327400 -7.125000 0.000000 0.000000 -7.836100 17.856200 5.104000 9.870435 7.858059 2.689842 77.309555 -15.381325 3.345485 -12.490214 17.286489 -2.531991 0.350533 1.876619 39.873752 19.310664 -22.689897 -8.634600 7.125000 0.000000 0.000000 46.740100 -48.503700 -5.089100 
0.223161 18.390861 8.995655 -9.718631 2.059804 17.653339 7.404436 4.377074 -2.757226 -23.227774 -53.831387 23.600827 -3.823661 -2.466117 -3.547964 -13.737541 48.267658 -43.158466 0.991100 6.336300 17.763300 0.024800 -4.354046 -0.816040 22.212604 30.055778 -0.141538 3.694460 -0.217177 1.002557 9.365120 -29.835823 -8.374586 -0.110900 -2.147600 5.913700 -6.382203 2.008026 7.373656 27.240031 9.130348 -32.294931 -10.219245 -2.050469 -9.398670 -27.589706 -13.794196 -3.380753 18.362683 -23.131137 30.949927 4.119100 -10.093500 10.660000 -9.172805 -6.671706 1.758667 -92.041816 12.776402 13.595975 11.737406 -12.594221 -1.982588 0.174432 1.601152 27.175953 15.359652 -10.172642 -3.315000 -7.125000 0.000000 0.000000 -7.842600 17.895200 5.101500 9.880860 7.860150 2.688488 77.352311 -15.406242 3.242469 -12.505847 17.303455 -2.536190 0.350509 1.876090 39.939259 19.315414 -22.678002 -8.633000 7.125000 0.000000 0.000000 46.734700 -48.492400 -5.072300 
0.222532 18.391595 8.994816 -9.687150 2.056204 17.660013 7.404641 4.376714 -2.760174 -23.218698 -53.802485 23.536143 -3.819877 -2.457359 -3.527492 -13.767458 48.254721 -43.030001 0.994500 6.346600 17.793400 0.021373 -4.347704 -0.819611 22.167246 30.023674 -0.174150 3.693274 -0.220404 1.007090 9.366334 -29.836272 -8.322571 -0.112600 -2.163200 5.956800 -6.416491 2.017595 7.370648 27.190337 9.136958 -32.318510 -10.201063 -2.036045 -9.372813 -27.533129 -13.814991 -3.398254 18.375101 -23.158940 30.930303 4.108800 -10.101800 10.654800 -9.171208 -6.674749 1.760262 -92.053519 12.740716 13.535734 11.741604 -12.596641 -1.983511 0.196906 1.597303 27.364960 15.241491 -10.234704 -3.304100 -7.125000 0.000000 0.000000 -7.936500 17.835500 5.174200 9.888326 7.861630 2.689610 77.361338 -15.420705 3.256826 -12.521613 17.325345 -2.543647 0.348132 1.881480 39.818174 19.382381 -22.743149 -8.687300 7.125000 0.000000 0.000000 46.839700 -48.534000 -5.148400 
0.216554 18.397258 8.994397 -9.192859 1.859446 17.847813 7.353664 4.383250 -2.789645 -23.684210 -53.961218 23.449388 -3.819660 -2.417102 -3.448567 -13.644708 48.213244 -43.269267 1.030800 6.458100 18.119500 -0.000814 -4.299814 -0.890956 21.496905 30.257475 -0.311701 3.693368 -0.224777 0.985726 9.445050 -29.972014 -8.403678 -0.124300 -2.273000 6.260900 -6.920686 1.977073 7.340082 26.753134 9.060691 -32.701825 -9.830493 -1.988241 -9.178836 -27.419002 -13.812817 -3.311061 18.397328 -23.174576 30.847720 4.100700 -10.106900 10.613000 -9.157695 -6.708816 1.792362 -92.076580 12.690066 13.450941 11.730442 -12.557905 -1.980948 0.242139 1.609492 27.613718 15.087561 -10.503291 -3.345800 -7.125000 0.000000 0.000000 -8.061400 17.542300 5.309800 9.960241 7.853683 2.714143 77.246454 -15.382699 3.402978 -12.398021 17.172610 -2.501059 0.359468 1.869853 39.609625 19.068741 -22.805948 -8.555300 7.125000 0.000000 0.000000 46.631100 -48.637800 -5.258400 
0.209109 18.407010 9.014531 -8.945568 1.917976 18.347150 7.301852 4.409778 -2.831645 -23.627730 -54.480837 23.114787 -3.805986 -2.372318 -3.434464 -13.591533 48.306651 -43.627009 1.043100 6.495200 18.228200 0.003708 -4.220648 -0.985280 21.049818 30.534978 -0.571461 3.701629 -0.172396 0.823893 9.560707 -30.244211 -8.664815 -0.133500 -2.355100 6.488000 -7.196045 1.792690 6.644223 26.460034 8.960351 -33.139191 -9.577164 -2.011218 -8.578935 -27.428828 -13.818340 -3.079156 18.589358 -23.229756 30.591288 4.148000 -10.117100 10.567400 -9.140770 -6.800986 1.817666 -92.099243 12.639357 13.448644 11.722971 -12.519945 -1.980653 0.288660 1.622450 27.718016 14.921249 -10.784891 -3.385900 -7.125000 0.000000 0.000000 -8.198000 17.234400 5.457500 10.010336 7.867249 2.732636 77.089589 -15.257879 3.625565 -12.161791 16.846409 -2.413038 0.390229 1.835113 39.362948 18.292963 -22.804226 -8.177500 7.125000 0.000000 0.000000 45.988300 -48.770000 -5.329700 
